<?xml version="1.0" encoding="UTF-8" standalone="no"?>
<!DOCTYPE svg PUBLIC "-//W3C//DTD SVG 1.1//EN" "http://www.w3.org/Graphics/SVG/1.1/DTD/svg11.dtd">
<svg width="100%" height="100%" viewBox="0 0 3424 468" version="1.1" xmlns="http://www.w3.org/2000/svg" xmlns:xlink="http://www.w3.org/1999/xlink" xml:space="preserve" xmlns:serif="http://www.serif.com/" style="fill-rule:evenodd;clip-rule:evenodd;stroke-linejoin:round;stroke-miterlimit:2;">
    <g transform="matrix(1,0,0,1,0,-5649.55)">
        <g id="Artboard2" transform="matrix(7.32809,0,0,1,-4669.58,3432.01)">
            <rect x="637.216" y="2217.54" width="467.204" height="467.204" style="fill:none;"/>
            <g transform="matrix(0.215095,0,0,1.57623,303.105,1915.96)">
                <g transform="matrix(2.53024,0,0,1,18.5068,71.0696)">
                    <rect x="729.128" y="246.885" width="96.914" height="29.472" style="fill:rgb(88,40,127);"/>
                </g>
                <g transform="matrix(1,0,0,1,1002.91,-16.0706)">
                    <path d="M683.157,310.473L682.149,310.473L668.547,338.434L632.526,404.934L596.505,338.434L582.902,310.473L581.895,310.473L581.895,436.673L550.408,436.673L550.408,260.85L587.94,260.85L633.03,346.746L634.037,346.746L678.623,260.85L714.644,260.85L714.644,436.673L683.157,436.673L683.157,310.473Z" style="fill:rgb(26,0,0);fill-rule:nonzero;"/>
                </g>
                <g transform="matrix(1,0,0,1,1294.34,-246.495)">
                    <path d="M527.245,521.501L482.912,667.097L449.158,667.097L508.101,491.274L549.412,491.274L607.852,667.097L573.342,667.097L528.505,521.501L527.245,521.501Z" style="fill:rgb(26,0,0);"/>
                </g>
                <g transform="matrix(1,0,0,-1,1617.02,911.876)">
                    <path d="M527.245,521.501L482.912,667.097L449.158,667.097L508.101,491.274L549.412,491.274L607.852,667.097L573.342,667.097L528.505,521.501L527.245,521.501Z" style="fill:rgb(26,0,0);"/>
                </g>
                <g transform="matrix(1,0,0,1,1208.3,69.936)">
                    <rect x="719.742" y="174.843" width="115.872" height="29.472" style="fill:rgb(88,40,127);"/>
                </g>
                <g transform="matrix(1,0,0,1,1208.3,69.936)">
                    <rect x="719.742" y="321.194" width="115.872" height="29.472" style="fill:rgb(88,40,127);"/>
                </g>
                <g transform="matrix(1,0,0,1,1002.91,-16.0706)">
                    <path d="M1382.92,310.473L1381.91,310.473L1368.31,338.434L1332.29,404.934L1296.27,338.434L1282.67,310.473L1281.66,310.473L1281.66,436.673L1250.17,436.673L1250.17,260.85L1287.71,260.85L1332.8,346.746L1333.8,346.746L1378.39,260.85L1414.41,260.85L1414.41,436.673L1382.92,436.673L1382.92,310.473Z" style="fill:rgb(26,0,0);fill-rule:nonzero;"/>
                </g>
            </g>
            <g transform="matrix(0.417723,0,0,3.06111,341.907,-15628.4)">
                <g transform="matrix(120.662,0,0,120.662,1221.73,5943.06)">
                    <path d="M0.14,0.009C0.123,0.009 0.111,0.005 0.104,-0.004C0.096,-0.012 0.092,-0.023 0.092,-0.036L0.092,-0.047C0.092,-0.06 0.096,-0.071 0.104,-0.08C0.111,-0.088 0.123,-0.092 0.14,-0.092C0.156,-0.092 0.168,-0.088 0.176,-0.08C0.184,-0.071 0.188,-0.06 0.188,-0.047L0.188,-0.036C0.188,-0.023 0.184,-0.012 0.176,-0.004C0.168,0.005 0.156,0.009 0.14,0.009ZM0.14,-0.42C0.123,-0.42 0.111,-0.424 0.104,-0.433C0.096,-0.441 0.092,-0.452 0.092,-0.465L0.092,-0.476C0.092,-0.489 0.096,-0.5 0.104,-0.509C0.111,-0.517 0.123,-0.521 0.14,-0.521C0.156,-0.521 0.168,-0.517 0.176,-0.509C0.184,-0.5 0.188,-0.489 0.188,-0.476L0.188,-0.465C0.188,-0.452 0.184,-0.441 0.176,-0.433C0.168,-0.424 0.156,-0.42 0.14,-0.42Z" style="fill:rgb(26,0,0);fill-rule:nonzero;"/>
                </g>
                <g transform="matrix(120.662,0,0,120.662,1308.36,5943.06)">
                    <path d="M0.284,0.012C0.227,0.012 0.179,0.001 0.141,-0.021C0.102,-0.042 0.069,-0.071 0.042,-0.107L0.087,-0.144C0.112,-0.111 0.139,-0.086 0.171,-0.068C0.202,-0.05 0.24,-0.041 0.286,-0.041C0.34,-0.041 0.382,-0.054 0.411,-0.08C0.44,-0.105 0.454,-0.141 0.454,-0.187C0.454,-0.23 0.442,-0.261 0.417,-0.281C0.392,-0.301 0.358,-0.316 0.313,-0.325L0.251,-0.338C0.184,-0.351 0.136,-0.374 0.106,-0.405C0.076,-0.436 0.061,-0.476 0.061,-0.525C0.061,-0.556 0.066,-0.583 0.077,-0.606C0.088,-0.628 0.103,-0.648 0.123,-0.663C0.142,-0.678 0.166,-0.69 0.194,-0.698C0.221,-0.706 0.252,-0.71 0.285,-0.71C0.337,-0.71 0.381,-0.701 0.417,-0.682C0.453,-0.663 0.483,-0.637 0.506,-0.603L0.461,-0.57C0.442,-0.598 0.418,-0.62 0.389,-0.635C0.36,-0.65 0.324,-0.657 0.282,-0.657C0.232,-0.657 0.193,-0.646 0.164,-0.625C0.134,-0.603 0.12,-0.57 0.12,-0.527C0.12,-0.486 0.133,-0.455 0.159,-0.436C0.185,-0.417 0.22,-0.403 0.263,-0.394L0.325,-0.381C0.394,-0.366 0.443,-0.342 0.471,-0.31C0.499,-0.278 0.513,-0.238 0.513,-0.19C0.513,-0.126 0.493,-0.076 0.452,-0.041C0.411,-0.006 0.355,0.012 0.284,0.012Z" style="fill:rgb(26,0,0);fill-rule:nonzero;"/>
                </g>
                <g transform="matrix(120.662,0,0,120.662,1389.09,5943.06)">
                    <path d="M0.399,-0.512L0.457,-0.512L0.22,0.144C0.212,0.165 0.202,0.18 0.191,0.188C0.18,0.196 0.161,0.2 0.135,0.2L0.077,0.2L0.077,0.15L0.163,0.15L0.212,0.015L0.022,-0.512L0.082,-0.512L0.239,-0.061L0.243,-0.061L0.399,-0.512Z" style="fill:rgb(26,0,0);fill-rule:nonzero;"/>
                </g>
                <g transform="matrix(120.662,0,0,120.662,1459.07,5943.06)">
                    <path d="M0.093,-0L0.093,-0.512L0.15,-0.512L0.15,-0.431L0.153,-0.431C0.164,-0.458 0.182,-0.48 0.206,-0.498C0.23,-0.515 0.263,-0.524 0.304,-0.524C0.359,-0.524 0.401,-0.507 0.432,-0.474C0.462,-0.44 0.477,-0.392 0.477,-0.329L0.477,-0L0.42,-0L0.42,-0.319C0.42,-0.371 0.409,-0.41 0.387,-0.435C0.364,-0.46 0.332,-0.473 0.289,-0.473C0.271,-0.473 0.254,-0.471 0.237,-0.466C0.22,-0.461 0.206,-0.454 0.193,-0.445C0.18,-0.436 0.169,-0.424 0.162,-0.41C0.154,-0.395 0.15,-0.379 0.15,-0.36L0.15,-0L0.093,-0Z" style="fill:rgb(26,0,0);fill-rule:nonzero;"/>
                </g>
                <g transform="matrix(120.662,0,0,120.662,1539.19,5943.06)">
                    <path d="M0.445,-0C0.423,-0 0.407,-0.006 0.397,-0.017C0.387,-0.028 0.381,-0.044 0.38,-0.063L0.38,-0.081L0.375,-0.081C0.364,-0.052 0.345,-0.03 0.319,-0.013C0.293,0.004 0.26,0.012 0.22,0.012C0.166,0.012 0.124,-0.001 0.095,-0.028C0.066,-0.054 0.051,-0.091 0.051,-0.139C0.051,-0.184 0.067,-0.22 0.1,-0.247C0.132,-0.274 0.185,-0.287 0.259,-0.287L0.377,-0.287L0.377,-0.347C0.377,-0.432 0.333,-0.474 0.246,-0.474C0.212,-0.474 0.184,-0.467 0.161,-0.453C0.138,-0.438 0.12,-0.418 0.106,-0.391L0.07,-0.421C0.084,-0.451 0.106,-0.476 0.135,-0.495C0.164,-0.514 0.201,-0.524 0.248,-0.524C0.308,-0.524 0.354,-0.509 0.386,-0.479C0.418,-0.449 0.434,-0.407 0.434,-0.353L0.434,-0.05L0.503,-0.05L0.503,-0L0.445,-0ZM0.228,-0.037C0.249,-0.037 0.268,-0.04 0.286,-0.045C0.304,-0.05 0.32,-0.058 0.334,-0.068C0.347,-0.077 0.358,-0.089 0.366,-0.103C0.373,-0.116 0.377,-0.132 0.377,-0.149L0.377,-0.244L0.257,-0.244C0.206,-0.244 0.168,-0.236 0.146,-0.22C0.123,-0.203 0.111,-0.181 0.111,-0.152L0.111,-0.128C0.111,-0.098 0.122,-0.075 0.143,-0.06C0.164,-0.045 0.193,-0.037 0.228,-0.037Z" style="fill:rgb(26,0,0);fill-rule:nonzero;"/>
                </g>
                <g transform="matrix(120.662,0,0,120.662,1614.97,5943.06)">
                    <path d="M0.093,-0.512L0.15,-0.512L0.15,-0.43L0.153,-0.43C0.166,-0.459 0.185,-0.482 0.211,-0.499C0.237,-0.516 0.27,-0.524 0.309,-0.524C0.375,-0.524 0.427,-0.501 0.464,-0.454C0.501,-0.407 0.52,-0.341 0.52,-0.256C0.52,-0.171 0.501,-0.105 0.464,-0.058C0.427,-0.011 0.375,0.012 0.309,0.012C0.27,0.012 0.237,0.004 0.212,-0.014C0.187,-0.031 0.167,-0.053 0.153,-0.082L0.15,-0.082L0.15,0.2L0.093,0.2L0.093,-0.512ZM0.296,-0.039C0.347,-0.039 0.387,-0.055 0.416,-0.088C0.445,-0.121 0.459,-0.165 0.459,-0.22L0.459,-0.292C0.459,-0.347 0.445,-0.391 0.416,-0.424C0.387,-0.457 0.347,-0.473 0.296,-0.473C0.276,-0.473 0.257,-0.47 0.24,-0.465C0.222,-0.459 0.206,-0.451 0.193,-0.441C0.18,-0.431 0.169,-0.419 0.162,-0.405C0.154,-0.391 0.15,-0.376 0.15,-0.359L0.15,-0.156C0.15,-0.138 0.154,-0.122 0.162,-0.108C0.169,-0.093 0.18,-0.081 0.193,-0.071C0.206,-0.06 0.222,-0.052 0.24,-0.047C0.257,-0.042 0.276,-0.039 0.296,-0.039Z" style="fill:rgb(26,0,0);fill-rule:nonzero;"/>
                </g>
                <g transform="matrix(120.662,0,0,120.662,1696.41,5943.06)">
                    <path d="M0.238,0.012C0.193,0.012 0.155,0.004 0.124,-0.013C0.092,-0.03 0.064,-0.054 0.041,-0.086L0.083,-0.119C0.104,-0.091 0.128,-0.07 0.153,-0.057C0.178,-0.044 0.208,-0.037 0.242,-0.037C0.281,-0.037 0.312,-0.045 0.333,-0.062C0.354,-0.079 0.365,-0.103 0.365,-0.134C0.365,-0.161 0.357,-0.183 0.341,-0.199C0.324,-0.214 0.297,-0.225 0.26,-0.23L0.218,-0.237C0.195,-0.24 0.173,-0.245 0.154,-0.252C0.135,-0.259 0.118,-0.268 0.105,-0.279C0.091,-0.29 0.08,-0.304 0.073,-0.321C0.065,-0.337 0.061,-0.357 0.061,-0.38C0.061,-0.404 0.066,-0.425 0.075,-0.443C0.084,-0.461 0.096,-0.476 0.111,-0.488C0.126,-0.5 0.145,-0.509 0.166,-0.515C0.187,-0.521 0.21,-0.524 0.235,-0.524C0.278,-0.524 0.313,-0.517 0.34,-0.502C0.367,-0.487 0.391,-0.468 0.41,-0.445L0.372,-0.41C0.359,-0.426 0.341,-0.441 0.319,-0.455C0.296,-0.468 0.267,-0.475 0.232,-0.475C0.195,-0.475 0.167,-0.467 0.147,-0.451C0.126,-0.435 0.116,-0.412 0.116,-0.383C0.116,-0.353 0.125,-0.331 0.144,-0.318C0.162,-0.305 0.189,-0.295 0.226,-0.289L0.267,-0.283C0.319,-0.275 0.358,-0.26 0.383,-0.237C0.407,-0.214 0.42,-0.181 0.42,-0.14C0.42,-0.092 0.404,-0.055 0.372,-0.028C0.339,-0.001 0.295,0.012 0.238,0.012Z" style="fill:rgb(26,0,0);fill-rule:nonzero;"/>
                </g>
                <g transform="matrix(120.662,0,0,120.662,1766.16,5943.06)">
                    <path d="M0.276,0.012C0.242,0.012 0.211,0.006 0.184,-0.006C0.156,-0.018 0.132,-0.036 0.113,-0.059C0.093,-0.082 0.078,-0.11 0.068,-0.143C0.057,-0.176 0.052,-0.214 0.052,-0.256C0.052,-0.298 0.057,-0.335 0.068,-0.369C0.078,-0.401 0.093,-0.43 0.113,-0.453C0.132,-0.475 0.156,-0.493 0.183,-0.506C0.21,-0.518 0.241,-0.524 0.275,-0.524C0.308,-0.524 0.337,-0.518 0.364,-0.506C0.391,-0.493 0.413,-0.476 0.432,-0.454C0.451,-0.432 0.465,-0.405 0.476,-0.375C0.486,-0.343 0.491,-0.309 0.491,-0.272L0.491,-0.245L0.112,-0.245L0.112,-0.22C0.112,-0.193 0.116,-0.169 0.124,-0.147C0.131,-0.124 0.142,-0.105 0.157,-0.089C0.171,-0.073 0.188,-0.061 0.209,-0.052C0.23,-0.043 0.253,-0.038 0.279,-0.038C0.354,-0.038 0.405,-0.072 0.434,-0.141L0.476,-0.113C0.46,-0.075 0.435,-0.045 0.401,-0.022C0.366,0.001 0.325,0.012 0.276,0.012ZM0.275,-0.476C0.25,-0.476 0.228,-0.472 0.208,-0.463C0.188,-0.454 0.171,-0.441 0.157,-0.425C0.142,-0.409 0.131,-0.39 0.124,-0.368C0.116,-0.345 0.112,-0.321 0.112,-0.294L0.112,-0.289L0.429,-0.289L0.429,-0.297C0.429,-0.324 0.425,-0.348 0.418,-0.371C0.411,-0.393 0.4,-0.412 0.387,-0.427C0.373,-0.442 0.357,-0.454 0.338,-0.463C0.319,-0.472 0.298,-0.476 0.275,-0.476Z" style="fill:rgb(26,0,0);fill-rule:nonzero;"/>
                </g>
            </g>
        </g>
    </g>
</svg>
