<?xml version="1.0" encoding="UTF-8" standalone="no"?>
<!DOCTYPE svg PUBLIC "-//W3C//DTD SVG 1.1//EN" "http://www.w3.org/Graphics/SVG/1.1/DTD/svg11.dtd">
<svg width="100%" height="100%" viewBox="0 0 580 844" version="1.1" xmlns="http://www.w3.org/2000/svg" xmlns:xlink="http://www.w3.org/1999/xlink" xml:space="preserve" xmlns:serif="http://www.serif.com/" style="fill-rule:evenodd;clip-rule:evenodd;stroke-linejoin:round;stroke-miterlimit:2;">
    <g transform="matrix(1,0,0,1,-1975.14,-6584.47)">
        <g transform="matrix(1,0,0,1,-147.469,6983.34)">
            <path d="M2403.7,-398.859C2408.9,-398.587 2576.1,-388.906 2643.43,-266.987C2643.43,-266.987 2671.57,-183.382 2667.88,-5.923C2667.88,-5.923 2737.8,-31.424 2676.94,119.378C2676.94,119.378 2676.84,168.127 2652.61,178.303C2635.97,185.292 2644.62,225.085 2611.27,289.834C2582.67,345.365 2514.88,416.066 2407.9,441.481C2401.06,445.503 2368.66,445.481 2361.99,441.385C2257.19,414.944 2207.83,335.673 2179.23,280.143C2145.88,215.393 2166.48,178.927 2155.33,164.735C2134.01,137.598 2143.31,105.422 2143.31,105.422C2094.08,11.607 2148.11,-22.981 2148.11,-22.981C2144.41,-200.44 2179.53,-266.987 2179.53,-266.987C2247.93,-390.838 2403.57,-398.865 2403.57,-398.865L2403.7,-398.859Z" style="fill:url(#_Linear1);"/>
        </g>
        <g transform="matrix(1,0,0,1,-1320.06,7921.69)">
            <g transform="matrix(76.106,0,0,76.106,3414.32,-622.053)">
                <path d="M0.325,-0.7L0.06,-0.7L0.06,-0L0.22,-0L0.22,-0.22L0.325,-0.22C0.463,-0.22 0.57,-0.327 0.57,-0.46C0.57,-0.593 0.463,-0.7 0.325,-0.7ZM0.325,-0.37L0.22,-0.37L0.22,-0.55L0.325,-0.55C0.374,-0.55 0.41,-0.511 0.41,-0.46C0.41,-0.409 0.374,-0.37 0.325,-0.37Z" style="fill:rgb(88,40,127);fill-rule:nonzero;"/>
            </g>
        </g>
    </g>
    <defs>
        <linearGradient id="_Linear1" x1="0" y1="0" x2="1" y2="0" gradientUnits="userSpaceOnUse" gradientTransform="matrix(449.874,-2.27374e-13,2.27374e-13,449.874,2251.95,22.8062)"><stop offset="0" style="stop-color:rgb(238,238,238);stop-opacity:1"/><stop offset="0.49" style="stop-color:rgb(199,187,209);stop-opacity:1"/><stop offset="1" style="stop-color:rgb(88,40,127);stop-opacity:1"/></linearGradient>
    </defs>
</svg>
