<?xml version="1.0" standalone="no"?>
<!DOCTYPE svg PUBLIC "-//W3C//DTD SVG 20010904//EN"
 "http://www.w3.org/TR/2001/REC-SVG-20010904/DTD/svg10.dtd">
<svg version="1.0" xmlns="http://www.w3.org/2000/svg"
 width="1081.000000pt" height="1081.000000pt" viewBox="0 0 1081.000000 1081.000000"
 preserveAspectRatio="xMidYMid meet">
<metadata>
Created by potrace 1.14, written by Peter Selinger 2001-2017
</metadata>
<g transform="translate(0.000000,1081.000000) scale(0.100000,-0.100000)"
fill="#000000" stroke="none">
<path d="M10 5410 l0 -5400 5395 0 5395 0 0 5400 0 5400 -5395 0 -5395 0 0
-5400z m7040 1965 l0 -525 -1645 0 -1645 0 0 525 0 525 1645 0 1645 0 0 -525z
m1663 -1445 l27 0 0 -525 0 -525 -3335 0 -3335 0 0 525 0 524 63 3 c47 2 6440
1 6580 -2z m-1663 -2485 l0 -525 -1645 0 -1645 0 0 525 0 525 1645 0 1645 0 0
-525z"/>
<path d="M4020 7375 l0 -265 1385 0 1385 0 0 265 0 265 -1385 0 -1385 0 0
-265z"/>
<path d="M2330 5410 l0 -270 3075 0 3075 0 0 270 0 270 -3075 0 -3075 0 0
-270z"/>
<path d="M4020 3445 l0 -265 1385 0 1385 0 0 265 0 265 -1385 0 -1385 0 0
-265z"/>
</g>
</svg>
